<svg id="Layer_1" data-name="Layer 1" xmlns="http://www.w3.org/2000/svg" viewBox="0 0 205.24 92.15"><defs><style>.cls-1{fill:#ee2737;}.cls-2{fill:#fff;}</style></defs><title>ForeSee_Logo_Red</title><path class="cls-1" d="M105.5,3.27V95.42L213.81,49.27Zm-63,35.08a13.37,13.37,0,0,0-3.4,0A10.3,10.3,0,0,0,30.4,48.78c0,6.54,4.38,11.12,10.66,11.12,6,0,10.54-4.78,10.54-11.12A10.54,10.54,0,0,0,42.55,38.35ZM41.05,55c-3.33,0-5.56-2.45-5.56-6.1,0-3.07,1.69-5.24,4.39-5.67a7.31,7.31,0,0,1,1-.07,7.79,7.79,0,0,1,1,.07,5.51,5.51,0,0,1,4.64,5.67C46.53,52.51,44.33,55,41.05,55ZM8.58,59.56h4.81V51.94h9.85V47.38H13.39v-4H23.76V38.79H8.58V59.56Zm80.39-8H99.19V46.87H89V43.43H99.7V38.78H84.16l0,20.76H99.7v-4.7H89V51.51ZM75.91,46.14c0-3.66-2.62-7.35-8.46-7.35H58.65V59.6h4.85V53.06h3.1L72,59.6h5.91l-5.8-7.33A6.32,6.32,0,0,0,75.91,46.14Zm-4.87,0a1.8,1.8,0,0,1-.49,1.36,4.35,4.35,0,0,1-3.07.9h-4V43.52h4c2.14,0,3.54,1,3.56,2.64v0ZM179,71.5a1.11,1.11,0,0,0-1.18-1.11h-1.48V74h0.51V72.59h0.63L178.41,74H179l-1-1.45A1.06,1.06,0,0,0,179,71.5Zm-2.15.63V70.85h1a0.64,0.64,0,1,1,0,1.29h-1Zm0.7-3.09a3.17,3.17,0,1,0,3.17,3.17A3.16,3.16,0,0,0,177.54,69Zm0,5.86a2.69,2.69,0,1,1,2.69-2.69A2.69,2.69,0,0,1,177.54,74.9Z" transform="translate(-8.58 -3.27)"/><path class="cls-2" d="M140.9,51.32h10.47V47.07H140.9V43h11V38.78H136.48l0,20.77h15.45v-4.3h-11V51.32Zm-20.05-4.49-0.44,0c-3.52-.28-5-0.5-5-2,0-1.11,1.15-2.56,4.39-2.56,3,0,4.38.92,5.11,1.58L129,42s-0.39-.51-0.59-0.71c-1.65-1.65-4.18-3.07-8.66-3.07s-9.06,2.32-9.06,6.74c0,5.26,5.13,5.67,8.88,6l0.59,0c3.42,0.28,4.81.84,4.81,1.92,0,2.14-2.86,2.62-5,2.62a7.66,7.66,0,0,1-5.27-1.9l-4.49,1.91,0.15,0.2c2.13,2.74,5.39,4.13,9.69,4.13,4.79,0,9.63-2.16,9.63-7S124.56,47.14,120.84,46.82Zm44.07,8.44V51.32h10.47V47.07H164.91V43h11V38.78H160.5l0,20.77h15.45v-4.3h-11Z" transform="translate(-8.58 -3.27)"/></svg>