<?xml version="1.0" encoding="utf-8"?>
<!-- Generator: Adobe Illustrator 19.0.0, SVG Export Plug-In . SVG Version: 6.00 Build 0)  -->
<svg version="1.1" id="Layer_1" xmlns="http://www.w3.org/2000/svg" xmlns:xlink="http://www.w3.org/1999/xlink" x="0px" y="0px"
	 viewBox="0 0 141.69 45" enable-background="new 0 0 141.69 45" xml:space="preserve">
<g>
	<defs>
		<rect id="SVGID_1_" width="141.69" height="45"/>
	</defs>
	<clipPath id="SVGID_2_">
		<use xlink:href="#SVGID_1_"  overflow="visible"/>
	</clipPath>
	<path clip-path="url(#SVGID_2_)" fill="#FFFFFF" d="M26.21,44.83c-7.73,0-14.32-5.23-16.06-12.72l-0.03-0.13l-1.4-0.07
		c-4.79-0.25-8.55-4.19-8.55-8.98V0.18h135.87c3.02,0,5.47,2.45,5.47,5.47v33.71c0,3.02-2.46,5.47-5.47,5.47H26.21z"/>
	<path clip-path="url(#SVGID_2_)" fill="#939598" d="M136.05,0.35c2.92,0,5.3,2.37,5.3,5.29v33.71c0,2.92-2.38,5.3-5.3,5.3
		l-109.79,0l-0.02-0.01l-0.06,0.01c-7.61,0-14.13-5.18-15.86-12.59l-0.06-0.26L10,31.79l-1.27-0.06c-4.7-0.24-8.38-4.11-8.38-8.81
		V0.35H136.05 M136.05,0H0v22.92c0,4.88,3.83,8.9,8.71,9.16l1.27,0.06C11.7,39.5,18.31,45,26.18,45l0.02,0l0.01,0h109.83
		c3.12,0,5.65-2.52,5.65-5.65V5.64C141.69,2.53,139.17,0,136.05,0"/>
	<path clip-path="url(#SVGID_2_)" fill="#8DC642" d="M4.72,4.72v18.17c0,2.89,2.27,5.22,5.12,5.37c-0.15-7.81,5.39-14.8,13.31-16.19
		c0.93-0.17,1.87-0.25,2.82-0.25c7.84,0,14.51,5.61,15.87,13.33c0.18,1.05,0.26,2.09,0.24,3.11c2.85-0.16,5.1-2.49,5.1-5.37V4.72
		H4.72z"/>
	<path clip-path="url(#SVGID_2_)" fill="#020202" d="M20.78,27.95c0-2.87,2.33-5.2,5.2-5.2c2.87,0,5.19,2.33,5.19,5.2H20.78z
		 M13.6,27.95c0,6.8,5.54,12.32,12.32,12.32c3.3,0,6.41-1.29,8.74-3.63l-2.51-2.5c-1.66,1.67-3.87,2.59-6.22,2.59
		c-4.84,0-8.78-3.94-8.78-8.78c0-4.84,3.93-8.78,8.78-8.78c4.85,0,8.78,3.94,8.78,8.78h3.54c0-6.79-5.53-12.32-12.32-12.32
		C19.14,15.64,13.6,21.16,13.6,27.95"/>
</g>
<g>
	<defs>
		<rect id="SVGID_3_" width="141.69" height="45"/>
	</defs>
	<clipPath id="SVGID_4_">
		<use xlink:href="#SVGID_3_"  overflow="visible"/>
	</clipPath>
	<path clip-path="url(#SVGID_4_)" fill="#231F20" d="M122.01,12.42c-0.22,0.13-0.37,0.37-0.37,0.63l0.01,6.35
		c0,0.26,0.15,0.5,0.37,0.63c0.23,0.13,0.51,0.13,0.74,0l2.74-1.59l2.75-1.59c0.23-0.13,0.36-0.37,0.36-0.64
		c0-0.26-0.13-0.5-0.36-0.63l-5.5-3.17C122.51,12.29,122.23,12.29,122.01,12.42"/>
	<polygon clip-path="url(#SVGID_4_)" fill="#020202" points="58.39,12.53 58.39,22.4 55.67,22.4 55.67,12.53 51.9,12.53 51.9,10.02 
		62.16,10.02 62.16,12.53 	"/>
	<path clip-path="url(#SVGID_4_)" fill="#020202" d="M71.06,22.4l-2.66-3.96h-2.14v3.96h-2.72V10.02h5.66
		c2.92,0,4.67,1.54,4.67,4.09v0.04c0,2-1.08,3.25-2.65,3.83l3.03,4.42H71.06z M71.11,14.25c0-1.17-0.82-1.77-2.14-1.77h-2.71v3.56
		h2.76c1.33,0,2.09-0.71,2.09-1.75V14.25z"/>
	<path clip-path="url(#SVGID_4_)" fill="#020202" d="M81.13,22.6c-3.33,0-5.36-1.86-5.36-5.5v-7.07h2.72v7
		c0,2.02,1.01,3.06,2.67,3.06c1.66,0,2.67-1.01,2.67-2.97v-7.09h2.72V17C86.56,20.75,84.46,22.6,81.13,22.6"/>
	<path clip-path="url(#SVGID_4_)" fill="#020202" d="M93.4,22.58c-1.88,0-3.77-0.65-5.26-1.98l1.61-1.93
		c1.11,0.92,2.28,1.5,3.69,1.5c1.11,0,1.79-0.44,1.79-1.17v-0.03c0-0.69-0.42-1.04-2.5-1.57c-2.5-0.64-4.1-1.33-4.1-3.78v-0.04
		c0-2.24,1.8-3.73,4.33-3.73c1.81,0,3.34,0.57,4.6,1.57l-1.41,2.05c-1.1-0.76-2.18-1.22-3.22-1.22c-1.04,0-1.59,0.47-1.59,1.08v0.03
		c0,0.81,0.53,1.08,2.67,1.62c2.51,0.66,3.92,1.56,3.92,3.72v0.03C97.93,21.2,96.06,22.58,93.4,22.58"/>
	<polygon clip-path="url(#SVGID_4_)" fill="#020202" points="104.85,12.53 104.85,22.4 102.13,22.4 102.13,12.53 98.36,12.53 
		98.36,10.02 108.62,10.02 108.62,12.53 	"/>
	<path clip-path="url(#SVGID_4_)" fill="#020202" d="M117.11,18.6h-6.6c0.27,1.22,1.12,1.85,2.32,1.85c0.9,0,1.56-0.28,2.3-0.97
		l1.54,1.36c-0.89,1.1-2.16,1.77-3.87,1.77c-2.85,0-4.95-2-4.95-4.9v-0.04c0-2.7,1.93-4.93,4.68-4.93c3.17,0,4.62,2.46,4.62,5.15
		v0.03C117.14,18.19,117.13,18.35,117.11,18.6 M112.52,14.9c-1.1,0-1.83,0.8-2.05,2.02h4.05C114.37,15.72,113.66,14.9,112.52,14.9"
		/>
</g>
<g>
	<path d="M55.05,33.91c-0.51,0-0.99-0.09-1.42-0.28c-0.43-0.19-0.81-0.44-1.13-0.76c-0.32-0.32-0.57-0.71-0.75-1.15
		c-0.18-0.44-0.27-0.91-0.27-1.41v-0.02c0-0.5,0.09-0.97,0.27-1.4c0.18-0.44,0.43-0.82,0.75-1.15c0.32-0.33,0.7-0.59,1.14-0.78
		s0.93-0.29,1.46-0.29c0.32,0,0.61,0.03,0.88,0.08c0.26,0.05,0.5,0.13,0.73,0.23c0.22,0.1,0.42,0.21,0.61,0.34
		c0.19,0.13,0.36,0.28,0.53,0.44l-0.79,0.91c-0.28-0.26-0.58-0.47-0.89-0.63s-0.67-0.24-1.07-0.24c-0.33,0-0.64,0.07-0.93,0.2
		s-0.53,0.31-0.73,0.53c-0.21,0.22-0.37,0.49-0.48,0.79s-0.17,0.62-0.17,0.96v0.02c0,0.34,0.06,0.66,0.17,0.96
		c0.11,0.3,0.27,0.57,0.48,0.79c0.21,0.23,0.45,0.41,0.73,0.54s0.59,0.2,0.93,0.2c0.43,0,0.79-0.08,1.1-0.25
		c0.31-0.16,0.61-0.39,0.91-0.67l0.79,0.8c-0.18,0.19-0.37,0.37-0.56,0.52c-0.2,0.15-0.41,0.28-0.64,0.39
		c-0.23,0.11-0.47,0.19-0.74,0.25S55.37,33.91,55.05,33.91z"/>
	<path d="M61.45,33.91c-0.38,0-0.74-0.07-1.06-0.2c-0.33-0.13-0.62-0.32-0.86-0.56c-0.24-0.24-0.44-0.53-0.57-0.86
		c-0.14-0.34-0.21-0.71-0.21-1.12v-0.02c0-0.38,0.06-0.74,0.19-1.07c0.13-0.33,0.3-0.62,0.53-0.88s0.5-0.45,0.81-0.59
		c0.31-0.14,0.66-0.22,1.04-0.22c0.42,0,0.79,0.08,1.1,0.23c0.32,0.15,0.58,0.36,0.79,0.62c0.21,0.26,0.37,0.56,0.48,0.91
		c0.11,0.34,0.16,0.7,0.16,1.08c0,0.05,0,0.11,0,0.17c0,0.06-0.01,0.11-0.02,0.17h-3.88c0.07,0.43,0.24,0.77,0.51,1
		c0.28,0.23,0.61,0.34,1.01,0.34c0.3,0,0.56-0.05,0.78-0.16c0.22-0.11,0.44-0.26,0.65-0.47l0.71,0.63c-0.25,0.3-0.55,0.54-0.9,0.72
		C62.35,33.82,61.93,33.91,61.45,33.91z M62.65,30.78c-0.02-0.19-0.06-0.38-0.13-0.55c-0.07-0.17-0.16-0.32-0.27-0.44
		c-0.11-0.12-0.25-0.22-0.4-0.29c-0.16-0.07-0.33-0.11-0.54-0.11c-0.37,0-0.68,0.13-0.92,0.38c-0.24,0.26-0.39,0.59-0.45,1.01H62.65
		z"/>
	<path d="M65.06,28.51h1.22v1.19c0.17-0.4,0.4-0.72,0.71-0.96c0.31-0.24,0.69-0.35,1.16-0.33v1.28h-0.07
		c-0.27,0-0.51,0.04-0.73,0.13c-0.22,0.09-0.41,0.22-0.57,0.39s-0.28,0.39-0.37,0.66c-0.09,0.26-0.13,0.57-0.13,0.92v2.01h-1.22
		V28.51z"/>
	<path d="M70.98,33.88c-0.22,0-0.42-0.03-0.61-0.08c-0.19-0.05-0.35-0.14-0.49-0.26s-0.24-0.28-0.32-0.48
		c-0.07-0.2-0.11-0.44-0.11-0.73v-2.78h-0.67v-1.04h0.67v-1.45h1.22v1.45h1.42v1.04h-1.42v2.59c0,0.23,0.06,0.4,0.17,0.5
		c0.11,0.1,0.27,0.15,0.48,0.15c0.26,0,0.51-0.06,0.75-0.18v0.99c-0.15,0.09-0.32,0.15-0.49,0.2S71.2,33.88,70.98,33.88z"/>
	<path d="M73.31,26.55h1.31v1.15h-1.31V26.55z M73.37,28.51h1.22v5.28h-1.22V28.51z"/>
	<path d="M76.42,29.55h-0.67v-1.01h0.67v-0.38c0-0.59,0.14-1.02,0.43-1.31c0.28-0.28,0.68-0.42,1.19-0.42c0.21,0,0.4,0.01,0.55,0.04
		c0.15,0.03,0.3,0.06,0.43,0.1v1.02c-0.12-0.04-0.23-0.07-0.34-0.09c-0.11-0.02-0.23-0.04-0.36-0.04c-0.46,0-0.69,0.27-0.69,0.8
		v0.29h1.4v1h-1.38v4.24h-1.22V29.55z M79.92,26.55h1.31v1.15h-1.31V26.55z M79.98,28.51h1.22v5.28h-1.22V28.51z"/>
	<path d="M85.19,33.91c-0.38,0-0.74-0.07-1.06-0.2c-0.33-0.13-0.62-0.32-0.86-0.56c-0.24-0.24-0.44-0.53-0.57-0.86
		c-0.14-0.34-0.21-0.71-0.21-1.12v-0.02c0-0.38,0.06-0.74,0.19-1.07c0.13-0.33,0.3-0.62,0.53-0.88s0.5-0.45,0.81-0.59
		c0.31-0.14,0.66-0.22,1.04-0.22c0.42,0,0.79,0.08,1.1,0.23c0.32,0.15,0.58,0.36,0.79,0.62c0.21,0.26,0.37,0.56,0.48,0.91
		c0.11,0.34,0.16,0.7,0.16,1.08c0,0.05,0,0.11,0,0.17c0,0.06-0.01,0.11-0.02,0.17h-3.88c0.07,0.43,0.24,0.77,0.51,1
		c0.28,0.23,0.61,0.34,1.01,0.34c0.3,0,0.56-0.05,0.78-0.16c0.22-0.11,0.44-0.26,0.65-0.47l0.71,0.63c-0.25,0.3-0.55,0.54-0.9,0.72
		C86.1,33.82,85.68,33.91,85.19,33.91z M86.39,30.78c-0.02-0.19-0.06-0.38-0.13-0.55c-0.07-0.17-0.16-0.32-0.27-0.44
		c-0.11-0.12-0.25-0.22-0.4-0.29c-0.16-0.07-0.33-0.11-0.54-0.11c-0.37,0-0.68,0.13-0.92,0.38c-0.24,0.26-0.39,0.59-0.45,1.01H86.39
		z"/>
	<path d="M90.99,33.9c-0.31,0-0.62-0.06-0.91-0.18c-0.29-0.12-0.55-0.3-0.78-0.53s-0.41-0.52-0.55-0.86
		c-0.14-0.34-0.21-0.73-0.21-1.17v-0.02c0-0.44,0.07-0.83,0.2-1.17c0.14-0.34,0.32-0.63,0.54-0.86c0.23-0.23,0.49-0.41,0.78-0.53
		s0.6-0.18,0.91-0.18c0.43,0,0.79,0.09,1.08,0.28c0.29,0.19,0.53,0.4,0.72,0.65v-2.84H94v7.3h-1.22l0.01-0.88
		c-0.19,0.27-0.44,0.51-0.73,0.7C91.78,33.8,91.42,33.9,90.99,33.9z M91.28,32.85c0.2,0,0.39-0.04,0.58-0.12s0.35-0.19,0.49-0.34
		c0.14-0.15,0.25-0.33,0.33-0.54c0.08-0.21,0.12-0.44,0.12-0.69v-0.02c0-0.25-0.04-0.48-0.12-0.7c-0.08-0.21-0.19-0.39-0.33-0.53
		s-0.3-0.26-0.49-0.34c-0.19-0.08-0.38-0.12-0.58-0.12c-0.21,0-0.4,0.04-0.58,0.11c-0.18,0.08-0.34,0.19-0.48,0.33
		c-0.14,0.15-0.25,0.33-0.33,0.54s-0.12,0.44-0.12,0.71v0.02c0,0.25,0.04,0.48,0.12,0.69s0.19,0.39,0.33,0.54
		c0.14,0.15,0.3,0.26,0.48,0.34C90.88,32.81,91.07,32.85,91.28,32.85z"/>
	<path d="M98.65,26.79h2.76c0.41,0,0.77,0.06,1.1,0.17s0.61,0.27,0.84,0.48s0.41,0.45,0.53,0.74c0.12,0.29,0.19,0.61,0.19,0.96v0.02
		c0,0.39-0.07,0.74-0.22,1.04c-0.15,0.3-0.35,0.54-0.6,0.75c-0.25,0.2-0.55,0.35-0.89,0.46c-0.34,0.1-0.71,0.15-1.09,0.15h-1.39
		v2.25h-1.22V26.79z M101.31,30.43c0.47,0,0.84-0.12,1.11-0.35s0.41-0.54,0.41-0.9v-0.02c0-0.42-0.14-0.73-0.41-0.94
		c-0.27-0.21-0.64-0.32-1.1-0.32h-1.43v2.53H101.31z"/>
	<path d="M105.19,28.51h1.22v1.19c0.17-0.4,0.4-0.72,0.71-0.96c0.31-0.24,0.69-0.35,1.16-0.33v1.28h-0.07
		c-0.27,0-0.51,0.04-0.73,0.13c-0.22,0.09-0.41,0.22-0.57,0.39s-0.28,0.39-0.37,0.66c-0.09,0.26-0.13,0.57-0.13,0.92v2.01h-1.22
		V28.51z"/>
	<path d="M109.34,26.55h1.31v1.15h-1.31V26.55z M109.4,28.51h1.22v5.28h-1.22V28.51z"/>
	<path d="M111.68,28.51h1.3l1.42,3.88l1.43-3.88h1.27l-2.16,5.32h-1.09L111.68,28.51z"/>
	<path d="M121.36,33.79v-0.65c-0.18,0.21-0.41,0.39-0.69,0.54c-0.28,0.15-0.62,0.22-1.02,0.22c-0.25,0-0.49-0.03-0.72-0.1
		c-0.23-0.07-0.43-0.17-0.6-0.31c-0.17-0.14-0.31-0.31-0.41-0.51c-0.1-0.2-0.16-0.44-0.16-0.71v-0.02c0-0.29,0.05-0.55,0.16-0.77
		c0.11-0.22,0.25-0.4,0.44-0.54c0.19-0.14,0.42-0.25,0.68-0.32c0.26-0.07,0.55-0.1,0.85-0.1c0.32,0,0.59,0.02,0.81,0.06
		c0.22,0.04,0.44,0.09,0.65,0.16v-0.1c0-0.37-0.11-0.65-0.33-0.84c-0.22-0.19-0.54-0.29-0.96-0.29c-0.3,0-0.57,0.03-0.8,0.09
		s-0.47,0.14-0.71,0.24l-0.33-0.97c0.29-0.13,0.59-0.24,0.9-0.32c0.31-0.08,0.68-0.12,1.11-0.12c0.79,0,1.37,0.19,1.75,0.58
		s0.57,0.94,0.57,1.65v3.13H121.36z M121.39,31.58c-0.15-0.06-0.33-0.11-0.54-0.15s-0.43-0.06-0.67-0.06
		c-0.38,0-0.68,0.07-0.89,0.22c-0.21,0.15-0.32,0.35-0.32,0.6v0.02c0,0.25,0.1,0.45,0.29,0.58s0.44,0.2,0.73,0.2
		c0.2,0,0.38-0.03,0.55-0.08c0.17-0.05,0.32-0.13,0.45-0.23c0.13-0.1,0.23-0.21,0.29-0.35s0.1-0.29,0.1-0.46V31.58z"/>
	<path d="M126.45,33.91c-0.39,0-0.76-0.07-1.09-0.22c-0.33-0.14-0.62-0.34-0.87-0.58c-0.25-0.25-0.44-0.54-0.57-0.87
		c-0.14-0.33-0.21-0.69-0.21-1.06v-0.02c0-0.37,0.07-0.73,0.21-1.06c0.14-0.34,0.33-0.63,0.57-0.88c0.25-0.25,0.54-0.45,0.87-0.59
		s0.7-0.22,1.1-0.22c0.5,0,0.91,0.08,1.24,0.25c0.33,0.17,0.62,0.39,0.87,0.66l-0.75,0.81c-0.19-0.19-0.39-0.35-0.6-0.48
		c-0.21-0.12-0.47-0.19-0.77-0.19c-0.22,0-0.42,0.04-0.61,0.14c-0.19,0.09-0.35,0.21-0.48,0.36c-0.13,0.15-0.24,0.33-0.31,0.54
		c-0.08,0.21-0.12,0.42-0.12,0.65v0.02c0,0.23,0.04,0.45,0.12,0.66c0.08,0.21,0.19,0.39,0.32,0.54c0.14,0.15,0.31,0.28,0.5,0.37
		s0.41,0.13,0.64,0.13c0.29,0,0.54-0.06,0.75-0.19c0.22-0.12,0.42-0.28,0.62-0.47l0.73,0.72c-0.26,0.29-0.56,0.53-0.89,0.72
		C127.39,33.81,126.97,33.91,126.45,33.91z"/>
	<path d="M130.79,35.42c-0.25,0-0.48-0.03-0.67-0.08c-0.2-0.06-0.39-0.13-0.58-0.23l0.41-0.9c0.11,0.06,0.23,0.11,0.35,0.15
		c0.12,0.04,0.24,0.05,0.36,0.05c0.17,0,0.32-0.04,0.43-0.13c0.11-0.09,0.22-0.25,0.32-0.48l-2.2-5.28h1.29l1.5,3.92l1.37-3.92h1.26
		l-2.1,5.43c-0.11,0.27-0.22,0.5-0.33,0.69s-0.24,0.34-0.38,0.46c-0.14,0.12-0.29,0.2-0.46,0.25
		C131.2,35.39,131.01,35.42,130.79,35.42z"/>
</g>
</svg>
